<?xml version="1.0" encoding="utf-8"?>
<!-- Generator: Adobe Illustrator 27.9.3, SVG Export Plug-In . SVG Version: 9.03 Build 53313)  -->
<svg version="1.1" id="Layer_1" xmlns="http://www.w3.org/2000/svg" xmlns:xlink="http://www.w3.org/1999/xlink" x="0px" y="0px"
	 viewBox="0 0 512 512" style="enable-background:new 0 0 512 512;" xml:space="preserve">
<style type="text/css">
	.st0{fill:#3C0000;}
</style>
<path class="st0" d="M277.4,47.2c7.2,0,16.1,3.3,26.3,9c23.3,13.1,26,37.8,21.9,62.6c-3.8,22.8-13,44.3-26.9,62.7
	c-3.9,6.5-7.4,13.3-10.4,20.3c-3.7,6.8,1.6,9.7,7,9.8c0.7,0,1.4,0,2.3,0c8.2,0,23.7-0.6,40.8-0.6c27.7,0,59.4,1.7,70.2,10.7
	c12.7,12.4,15.7,31.8,7.2,47.4c-1.8,2.7-3.9,5.3-6.2,7.6c-6,5-5.3,9.6,0.7,13.4c17,18,10.1,47.8-5.8,56.7c-4.9,3-4.9,8.6-0.9,12.9
	c14.5,14.3,3.4,49.2-12.3,52.4c-4,1.5-3.7,4.5-2.6,7.7c4.1,11.6,3.4,24.4-5,33.6c-7.1,8-17.3,12.6-28,12.6c-1.9,0-3.8-0.1-5.7-0.4
	c-11.2-0.5-23.5-0.6-36-0.6c-22.1,0-45,0.5-64.2,0.5s-33.2-0.4-41.1-2.1c-16.9-4-32.9-11.1-47.1-21c-7.8-5.1-14.1-12.2-22.1-16.8
	c-7.2-4.9-16.1-6.8-24.7-5.4c-2.2,0.4-4.3,0.6-6.2,0.6c-14.3,0-22.1-11.4-22.8-28c-0.9-23.9,0-109.8-0.2-128.9
	c0-14.4,11.7-26.2,26.1-26.2h0c1.2,0,2.5,0.1,3.7,0.3c0.9,0.1,1.9,0.2,2.8,0.2c6.5,0,12.8-2.4,17.6-6.9
	c19.4-15.8,37.7-32.8,56.2-49.7c19.7-17,36-37.6,48.1-60.7c8.8-15.7,14.9-32.7,18-50.4C260.1,54.1,267,47.3,277.4,47.2 M277.4,2.3
	c-18.5,0-35.1,7.5-46.8,21.1c-9,10.4-14.7,24-16.9,40.4c-2.3,12.4-6.6,24.3-12.8,35.2l-0.3,0.6l-0.3,0.6
	c-9.4,18.1-22.2,34.2-37.6,47.4l-0.5,0.4l-0.5,0.5l-5.4,5c-15.1,13.9-29.4,27-44.3,39.4h-0.2c-39.2,0.1-71.1,32-71.1,71.3v0.4
	c0.1,6.2,0,20.7-0.1,37.5c-0.1,33.9-0.3,76,0.3,92.6v0.2c0.7,17.8,6.1,33.7,15.7,46c12.4,16,31.4,25.2,52.1,25.2
	c3.1,0,6.3-0.2,9.4-0.6c1.2,0.9,3.1,2.5,4.5,3.7c3.7,3.1,8.2,7,13.8,10.7c18.9,13,39.7,22.2,62,27.5l0.5,0.1l0.5,0.1
	c10.5,2.2,24.6,3.1,50.5,3.1c9.5,0,19.6-0.1,30.3-0.2c11.1-0.1,22.6-0.2,33.9-0.2c12.6,0,23.2,0.2,32.1,0.5c3.2,0.4,6.3,0.6,9.5,0.5
	c23.4,0,45.8-10,61.4-27.4c10.2-11.2,16.6-25.2,18.5-40.5c0.4-3,0.6-6.1,0.6-9.2c0.2-0.3,0.5-0.5,0.7-0.8
	c6.5-8.2,11.6-18.2,14.8-28.9c3.5-11.7,4.6-24,3.2-35.4c-0.4-3-0.9-6-1.6-8.9c5.5-9.1,9.3-19.6,11-30.8c2.4-15.8,0.5-31.5-5.4-45.5
	c6.1-14.4,8.2-30.5,5.9-46.1c-2.8-18.1-11.5-35.1-24.6-47.9l-1.2-1.2l-1.3-1.1c-15.8-13.2-38.7-19.5-78.9-20.9
	c5.3-12.9,9.1-26.4,11.4-40.2c3.5-20.8,2.9-38.9-1.7-55.3c-6.6-23.4-21.3-42-42.5-53.9l0,0l0,0C307.6,6.9,292.3,2.3,277.4,2.3
	L277.4,2.3z"/>
</svg>
